<?xml version="1.0" encoding="utf-8"?>
<!-- Generator: Adobe Illustrator 19.1.0, SVG Export Plug-In . SVG Version: 6.00 Build 0)  -->
<svg version="1.1" id="Layer_1" xmlns="http://www.w3.org/2000/svg" xmlns:xlink="http://www.w3.org/1999/xlink" x="0px" y="0px"
	 viewBox="0 0 40 40" style="enable-background:new 0 0 40 40;" xml:space="preserve">
<style type="text/css">
	.st0{fill:#666666;}
</style>
<g>
	<g>
		<g>
			<g>
				<path class="st0" d="M21.5,32.1c-5.9,0-10.7-4.8-10.7-10.7c0-0.6,0.4-1,1-1s1,0.4,1,1c0,4.8,3.9,8.7,8.7,8.7s8.7-3.9,8.7-8.7
					s-3.9-8.7-8.7-8.7c-0.6,0-1-0.4-1-1s0.4-1,1-1c5.9,0,10.7,4.8,10.7,10.7C32.2,27.3,27.4,32.1,21.5,32.1z"/>
			</g>
		</g>
		<g>
			<path class="st0" d="M9,21.3l2.3-4.1c0.2-0.3,0.6-0.3,0.8,0l2.3,4.1c0.2,0.3,0,0.7-0.4,0.7H9.4C9.1,22,8.8,21.6,9,21.3z"/>
		</g>
	</g>
	<g>
		<path class="st0" d="M21.1,26.8c0.5,0,0.8,0.4,0.8,0.8c0,0.5-0.4,0.8-0.8,0.8c-0.5,0-0.8-0.4-0.8-0.8
			C20.2,27.2,20.6,26.8,21.1,26.8z"/>
		<circle class="st0" cx="27.3" cy="21.5" r="0.8"/>
		<circle class="st0" cx="25.5" cy="17.3" r="0.8"/>
		<path class="st0" d="M25.3,24.8c0.5,0,0.8,0.4,0.8,0.8c0,0.5-0.4,0.8-0.8,0.8c-0.5,0-0.8-0.4-0.8-0.8
			C24.4,25.1,24.8,24.8,25.3,24.8z"/>
		<path class="st0" d="M18.2,25.4c-0.2,0-0.4-0.1-0.6-0.2c-0.3-0.3-0.4-0.9-0.1-1.2l2.5-2.6V16c0-0.5,0.5-0.8,1-0.8
			c0.5,0,1,0.4,1,0.8v5.7c0,0.2-0.1,0.4-0.3,0.6l-2.9,2.9C18.6,25.3,18.4,25.4,18.2,25.4z"/>
	</g>
</g>
</svg>
