<?xml version="1.0" encoding="utf-8"?>
<!-- Generator: Adobe Illustrator 18.0.0, SVG Export Plug-In . SVG Version: 6.00 Build 0)  -->
<!DOCTYPE svg PUBLIC "-//W3C//DTD SVG 1.1//EN" "http://www.w3.org/Graphics/SVG/1.1/DTD/svg11.dtd">
<svg version="1.1" id="Layer_1" xmlns="http://www.w3.org/2000/svg" xmlns:xlink="http://www.w3.org/1999/xlink" x="0px" y="0px"
	 width="1152px" height="1152px" viewBox="0 0 1152 1152" enable-background="new 0 0 1152 1152" xml:space="preserve">
<g>
	<path d="M768,192v-72C768,53.7,714.3,0,648,0H504c-66.3,0-120,53.7-120,120v72H144c-26.5,0-48,21.5-48,48v36c0,6.6,5.4,12,12,12
		h936c6.6,0,12-5.4,12-12v-36c0-26.5-21.5-48-48-48H768z M672,192H480v-72c0-13.3,10.7-24,24-24h144c13.3,0,24,10.7,24,24V192z"/>
	<path d="M192,384l46.6,745.5c0.8,12.6,11.3,22.5,24,22.5h626.9c12.7,0,23.2-9.9,24-22.5L960,384H192z M420,1008h-60.5
		c-6.4,0-11.7-5-12-11.5l-22.9-504c-0.3-6.8,5.1-12.5,12-12.5H420c6.6,0,12,5.4,12,12v504C432,1002.6,426.6,1008,420,1008z
		 M612,1008h-72c-6.6,0-12-5.4-12-12V492c0-6.6,5.4-12,12-12h72c6.6,0,12,5.4,12,12v504C624,1002.6,618.6,1008,612,1008z
		 M792.5,1008H732c-6.6,0-12-5.4-12-12V492c0-6.6,5.4-12,12-12h83.4c6.8,0,12.3,5.7,12,12.5l-22.9,504
		C804.2,1003,798.9,1008,792.5,1008z"/>
</g>
</svg>
