<?xml version="1.0" encoding="utf-8"?>
<!-- Generator: Adobe Illustrator 19.1.0, SVG Export Plug-In . SVG Version: 6.00 Build 0)  -->
<svg version="1.1" id="Layer_1" xmlns="http://www.w3.org/2000/svg" xmlns:xlink="http://www.w3.org/1999/xlink" x="0px" y="0px"
	 viewBox="0 0 40 40" style="enable-background:new 0 0 40 40;" xml:space="preserve">
<style type="text/css">
	.st0{opacity:0.65;fill:#333333;}
</style>
<path id="Desktop_icon" class="st0" d="M29.9,12.2H10.1c-0.6,0-1.1,0.5-1.1,1.1v14.5c0,0.6,0.5,1.1,1.1,1.1h6.4l-0.3,1.5h-1.7
	c-0.2,0-0.4,0.2-0.4,0.4c0,0.2,0.2,0.4,0.4,0.4h10.9c0.2,0,0.4-0.2,0.4-0.4c0-0.2-0.2-0.4-0.4-0.4h-1.7L23.5,29h6.4
	c0.6,0,1.1-0.5,1.1-1.1V13.4C31,12.7,30.5,12.2,29.9,12.2z M19.1,27.3c0-0.5,0.4-0.9,0.9-0.9s0.9,0.4,0.9,0.9s-0.4,0.9-0.9,0.9
	C19.5,28.2,19.1,27.8,19.1,27.3z M29.5,25.6H10.5V14h18.9V25.6z"/>
</svg>
