<?xml version="1.0" encoding="utf-8"?>
<!-- Generator: Adobe Illustrator 18.0.0, SVG Export Plug-In . SVG Version: 6.00 Build 0)  -->
<!DOCTYPE svg PUBLIC "-//W3C//DTD SVG 1.1//EN" "http://www.w3.org/Graphics/SVG/1.1/DTD/svg11.dtd">
<svg version="1.1" id="Layer_1" xmlns="http://www.w3.org/2000/svg" xmlns:xlink="http://www.w3.org/1999/xlink" x="0px" y="0px"
	 width="1152px" height="1152px" viewBox="0 0 1152 1152" enable-background="new 0 0 1152 1152" xml:space="preserve">
<path d="M796.8,912H672V504c0-13.3-10.7-24-24-24H504c-13.3,0-24,10.7-24,24v408H355.2c-17.1,0-25.7,20.7-13.6,32.8L559,1145
	c4.7,4.7,10.8,7,16.9,7c6.2,0,12.3-2.3,17-7l217.4-200.2C822.4,932.7,813.9,912,796.8,912z"/>
<path d="M960,336C959.8,99,832.6,0,648,0C517.7,0,435.2,61.4,377.4,150.9c-39.5-8.4-81.7-9.5-125.2-1.3C103.4,177.6,0,334.7,0,480
	s121.2,334.2,288,336h96V480c0-53,43-96,96-96h192c53,0,96,43,96,96v336h144c132.5,0,240-107.5,240-240v-48
	C1152,422,1066,336,960,336z"/>
</svg>
