<?xml version="1.0" encoding="utf-8"?>
<!-- Generator: Adobe Illustrator 18.0.0, SVG Export Plug-In . SVG Version: 6.00 Build 0)  -->
<!DOCTYPE svg PUBLIC "-//W3C//DTD SVG 1.1//EN" "http://www.w3.org/Graphics/SVG/1.1/DTD/svg11.dtd">
<svg version="1.1" id="Layer_1" xmlns="http://www.w3.org/2000/svg" xmlns:xlink="http://www.w3.org/1999/xlink" x="0px" y="0px"
	 width="1152px" height="1152px" viewBox="0 0 1152 1152" enable-background="new 0 0 1152 1152" xml:space="preserve">
<g>
	<polygon points="1152,744 1152,360 900,549 	"/>
	<path d="M0,240l547.2,410.4c17.1,12.8,40.5,12.8,57.6,0L1152,240c0-26.5-21.5-48-48-48H48C21.5,192,0,213.5,0,240z"/>
	<polygon points="0,744 0,360 252,549 	"/>
	<path d="M816,612L633.6,748.8c-34.1,25.6-81.1,25.6-115.2,0L336,612L0,876v36c0,26.5,21.5,48,48,48h1056c26.5,0,48-21.5,48-48v-36
		L816,612z"/>
</g>
</svg>
