<?xml version="1.0" encoding="utf-8"?>
<!-- Generator: Adobe Illustrator 18.1.1, SVG Export Plug-In . SVG Version: 6.00 Build 0)  -->
<svg version="1.1" id="Layer_1" xmlns="http://www.w3.org/2000/svg" xmlns:xlink="http://www.w3.org/1999/xlink" x="0px" y="0px"
	 viewBox="0 0 24 24" enable-background="new 0 0 24 24" xml:space="preserve">
<g>
	<path d="M18.3,2.2c0.2-0.2,0.6-0.2,0.9,0l1.6,1.6c0.2,0.2,0.2,0.6,0,0.9L13.4,12l7.4,7.3c0.2,0.2,0.2,0.6,0,0.9l-1.6,1.6
		c-0.2,0.2-0.6,0.2-0.9,0l-9.4-9.4c-0.2-0.2-0.2-0.6,0-0.9L18.3,2.2z"/>
	<path d="M4,0h2.5C6.9,0,7,0.4,7,0.8v22.4C7,23.6,6.9,24,6.5,24H4c-0.4,0-1-0.4-1-0.8V0.8C3,0.4,3.6,0,4,0z"/>
</g>
</svg>
