<?xml version="1.0" encoding="utf-8"?>
<!-- Generator: Adobe Illustrator 18.0.0, SVG Export Plug-In . SVG Version: 6.00 Build 0)  -->
<!DOCTYPE svg PUBLIC "-//W3C//DTD SVG 1.1//EN" "http://www.w3.org/Graphics/SVG/1.1/DTD/svg11.dtd">
<svg version="1.1" id="Layer_1" xmlns="http://www.w3.org/2000/svg" xmlns:xlink="http://www.w3.org/1999/xlink" x="0px" y="0px"
	 width="1152px" height="1152px" viewBox="0 0 1152 1152" enable-background="new 0 0 1152 1152" xml:space="preserve">
<path d="M930.6,164.2l-63.3,391.7c-1.9,11.6-11.9,20.2-23.7,20.2H768l95.7-548.1C866.1,13.3,854.8,0,840,0H288
	c-26.5,0-48,21.5-48,48v480c0,26.5,21.5,48,48,48h259.2l-18.8,115.7C525.7,706.4,537,720,552,720h472c23.5,0,43.5-17,47.3-40.1
	l80-480c4.9-29.3-17.7-55.9-47.3-55.9H954.3C942.5,144,932.4,152.5,930.6,164.2z"/>
<path d="M96,1152H48c-26.5,0-48-21.5-48-48L0,48C0,21.5,21.5,0,48,0h48c26.5,0,48,21.5,48,48v1056C144,1130.5,122.5,1152,96,1152z"
	/>
</svg>
