<?xml version="1.0" encoding="utf-8"?>
<!-- Generator: Adobe Illustrator 18.1.1, SVG Export Plug-In . SVG Version: 6.00 Build 0)  -->
<svg version="1.1" id="Layer_1" xmlns="http://www.w3.org/2000/svg" xmlns:xlink="http://www.w3.org/1999/xlink" x="0px" y="0px"
	 viewBox="0 0 24 24" enable-background="new 0 0 24 24" xml:space="preserve">
<g>
	<path d="M5.9,2.2C5.7,1.9,5.3,1.9,5,2.2L3.4,3.8C3.2,4,3.2,4.4,3.4,4.7l7.4,7.3l-7.4,7.3c-0.2,0.2-0.2,0.6,0,0.9l1.6,1.6
		c0.2,0.2,0.6,0.2,0.9,0l9.4-9.4c0.2-0.2,0.2-0.6,0-0.9L5.9,2.2z"/>
	<path d="M20.2,0h-2.5C17.3,0,17,0.4,17,0.8v22.4c0,0.4,0.3,0.8,0.8,0.8h2.5c0.4,0,0.8-0.4,0.8-0.8V0.8C21,0.4,20.7,0,20.2,0z"/>
</g>
</svg>
