<?xml version="1.0" encoding="utf-8"?>
<!-- Generator: Adobe Illustrator 19.1.0, SVG Export Plug-In . SVG Version: 6.00 Build 0)  -->
<svg version="1.1" id="Layer_1" xmlns="http://www.w3.org/2000/svg" xmlns:xlink="http://www.w3.org/1999/xlink" x="0px" y="0px"
	 viewBox="0 0 40 40" style="enable-background:new 0 0 40 40;" xml:space="preserve">
<style type="text/css">
	.st0{opacity:0.65;fill:#333333;}
</style>
<path id="Mobile_Icon" class="st0" d="M25,11.2h-9.1c-0.5,0-0.9,0.4-0.9,0.9v17.2c0,0.5,0.4,0.9,0.9,0.9H25c0.5,0,0.9-0.4,0.9-0.9
	V12.2C25.9,11.7,25.5,11.2,25,11.2z M24.1,13.1v13.6h-7.3V13.1H24.1z M20.4,29.3c-0.5,0-0.9-0.4-0.9-0.9c0-0.5,0.4-0.9,0.9-0.9
	c0.5,0,0.9,0.4,0.9,0.9C21.3,28.9,20.9,29.3,20.4,29.3z"/>
</svg>
