<?xml version="1.0" encoding="utf-8"?>
<!-- Generator: Adobe Illustrator 19.1.0, SVG Export Plug-In . SVG Version: 6.00 Build 0)  -->
<svg version="1.1" id="Layer_1" xmlns="http://www.w3.org/2000/svg" xmlns:xlink="http://www.w3.org/1999/xlink" x="0px" y="0px"
	 viewBox="0 0 40 40" style="enable-background:new 0 0 40 40;" xml:space="preserve">
<style type="text/css">
	.st0{fill:#666666;}
</style>
<path id="Reads_Icon" class="st0" d="M34.4,10.5c-1.7-0.8-3.8-1.2-5.8-1.2c-3.3,0-6.3,1.1-8.5,3.1c-2.2-2-5.2-3.1-8.5-3.1
	c-2.1,0-4.1,0.4-5.8,1.2c-0.2,0.1-0.3,0.3-0.3,0.5v17l0,0l0,0l0,0c0,0.2,0.2,0.5,0.5,0.5l14,2.3h0.1h0.1l14.1-2.2
	c0.3,0,0.4-0.2,0.5-0.5l0,0l0,0l0,0V11C34.7,10.8,34.6,10.6,34.4,10.5z M20.6,13.3c2-1.9,4.8-2.9,7.9-2.9c1.8,0,3.5,0.3,5,1v15.9
	c-1.5-0.6-3.3-0.9-5-0.9c-3,0-5.8,0.9-7.9,2.6C20.6,28.9,20.6,13.3,20.6,13.3z M6.5,11.3c1.5-0.6,3.3-1,5-1c3.1,0,6,1,7.9,2.9v15.6
	c-2.1-1.7-4.9-2.6-7.9-2.6c-1.8,0-3.5,0.3-5,0.9C6.5,27.2,6.5,11.3,6.5,11.3z"/>
</svg>
