<?xml version="1.0" encoding="utf-8"?>
<!-- Generator: Adobe Illustrator 19.1.0, SVG Export Plug-In . SVG Version: 6.00 Build 0)  -->
<svg version="1.1" id="Layer_1" xmlns="http://www.w3.org/2000/svg" xmlns:xlink="http://www.w3.org/1999/xlink" x="0px" y="0px"
	 viewBox="0 0 40 40" style="enable-background:new 0 0 40 40;" xml:space="preserve">
<style type="text/css">
	.st0{fill:#666666;}
</style>
<g>
	<g>
		<path class="st0" d="M20.2,31.3c-6,0-10.8-4.8-10.8-10.8c0-6,4.8-10.8,10.8-10.8S31,14.5,31,20.5C31,26.4,26.1,31.3,20.2,31.3z
			 M20.2,12.1c-4.6,0-8.4,3.8-8.4,8.4s3.8,8.4,8.4,8.4s8.4-3.8,8.4-8.4C28.6,15.8,24.8,12.1,20.2,12.1z"/>
	</g>
	<path class="st0" d="M20.1,25.8c0.5,0,0.8,0.4,0.8,0.8c0,0.5-0.4,0.8-0.8,0.8c-0.5,0-0.8-0.4-0.8-0.8
		C19.2,26.2,19.6,25.8,20.1,25.8z"/>
	<circle class="st0" cx="26.3" cy="20.5" r="0.8"/>
	<circle class="st0" cx="24.5" cy="16.3" r="0.8"/>
	<path class="st0" d="M24.3,23.8c0.5,0,0.8,0.4,0.8,0.8c0,0.5-0.4,0.8-0.8,0.8c-0.5,0-0.8-0.4-0.8-0.8
		C23.4,24.1,23.8,23.8,24.3,23.8z"/>
	<path class="st0" d="M17.2,24.4c-0.2,0-0.4-0.1-0.6-0.2c-0.3-0.3-0.4-0.9-0.1-1.2l2.5-2.6V15c0-0.5,0.5-0.8,1-0.8
		c0.5,0,1,0.4,1,0.8v5.7c0,0.2-0.1,0.4-0.3,0.6l-2.9,2.9C17.6,24.3,17.4,24.4,17.2,24.4z"/>
</g>
</svg>
