<?xml version="1.0" encoding="utf-8"?>
<!-- Generator: Adobe Illustrator 18.1.1, SVG Export Plug-In . SVG Version: 6.00 Build 0)  -->
<svg version="1.1" id="Layer_1" xmlns="http://www.w3.org/2000/svg" xmlns:xlink="http://www.w3.org/1999/xlink" x="0px" y="0px"
	 width="1152px" height="1152px" viewBox="176 -276 1152 1152" enable-background="new 176 -276 1152 1152" xml:space="preserve">
<g>
	<path d="M1040-35.6v-132c0-13.2,7.6-16.4,17-7l271,260.2l-271,257.1c-9.3,9.3-17,6.2-17-7V204.4c-240,0-360,72-480,264
		C560-35.6,864.5-35.6,1040-35.6z"/>
	<path d="M1124.7,423.5c-10.9,10.9-23.4,19.3-36.7,24.9V636H320V108h217C567.7,49.5,608,1.2,657.4-36H176v816h1056V316.6
		L1124.7,423.5z"/>
</g>
</svg>
