<?xml version="1.0" encoding="utf-8"?>
<!-- Generator: Adobe Illustrator 19.2.0, SVG Export Plug-In . SVG Version: 6.00 Build 0)  -->
<svg version="1.1" id="Layer_1" xmlns="http://www.w3.org/2000/svg" xmlns:xlink="http://www.w3.org/1999/xlink" x="0px" y="0px"
	 viewBox="0 0 40.3 40.3" style="enable-background:new 0 0 40.3 40.3;" xml:space="preserve">
<style type="text/css">
	.st0{fill:none;}
	.st1{opacity:0.65;fill:#333333;enable-background:new    ;}
</style>
<g>
	<rect x="11.2" y="12.6" class="st0" width="17" height="14.2"/>
	<ellipse class="st0" cx="30" cy="19.7" rx="0.6" ry="0.6"/>
	<path class="st1" d="M10,12v15.5c0,0.3,0.3,0.6,0.6,0.6h20.7c0.3,0,0.6-0.3,0.6-0.6V12c-0.1-0.4-0.3-0.6-0.7-0.6H10.5
		C10.2,11.3,10,11.6,10,12z M30.6,19.7c0,0.4-0.3,0.6-0.6,0.6c-0.3,0-0.6-0.3-0.6-0.6c0-0.4,0.3-0.6,0.6-0.6S30.6,19.3,30.6,19.7z
		 M28.2,12.6v14.2h-17V12.6H28.2z"/>
</g>
</svg>
