<?xml version="1.0" encoding="utf-8"?>
<!-- Generator: Adobe Illustrator 19.1.0, SVG Export Plug-In . SVG Version: 6.00 Build 0)  -->
<svg version="1.1" id="Layer_1" xmlns="http://www.w3.org/2000/svg" xmlns:xlink="http://www.w3.org/1999/xlink" x="0px" y="0px"
	 viewBox="0 0 40 40" style="enable-background:new 0 0 40 40;" xml:space="preserve">
<style type="text/css">
	.st0{fill:#7A7A7A;}
</style>
<g>
	<path class="st0" d="M31,15.5c-8,0-11,3.7-11,3.7s-4-3.7-11-3.7c0,1.2,0,5.8,0,5.8v3.4c0,3,0,5.5,0,5.5c7,0,11,3.7,11,3.7
		s3-3.7,11-3.7v-5.5c0-1.5,0-1.5,0-3.7V15.5 M9,24.2v-2.4v-2.6V24.2 M19.6,8.1c-2,0-3.7,1.6-3.7,3.7c0,2,1.6,3.7,3.7,3.7
		c2,0,3.7-1.6,3.7-3.7C23.3,9.8,21.7,8.1,19.6,8.1"/>
</g>
</svg>
